<svg width="38" height="38" viewBox="0 0 38 38" fill="none" xmlns="http://www.w3.org/2000/svg">
<path d="M6.33335 28.5H9.50002V34.9616L17.5766 28.5H25.3334C27.0798 28.5 28.5 27.0798 28.5 25.3333V12.6667C28.5 10.9202 27.0798 9.5 25.3334 9.5H6.33335C4.58694 9.5 3.16669 10.9202 3.16669 12.6667V25.3333C3.16669 27.0798 4.58694 28.5 6.33335 28.5Z" fill="white"/>
<path d="M31.6667 3.16675H12.6667C10.9202 3.16675 9.5 4.587 9.5 6.33341H28.5C30.2464 6.33341 31.6667 7.75366 31.6667 9.50008V22.1667C33.4131 22.1667 34.8333 20.7465 34.8333 19.0001V6.33341C34.8333 4.587 33.4131 3.16675 31.6667 3.16675Z" fill="white"/>
</svg>
