<svg id="Layer_1" height="512" viewBox="0 0 55 55" width="512" xmlns="http://www.w3.org/2000/svg" data-name="Layer 1"><path d="m18.36 15.18a3.37 3.37 0 0 0 5.5 2 3.69 3.69 0 0 1 1.8-.86v9.33h-9.33a4.16 4.16 0 0 1 .92-1.87 3.33 3.33 0 0 0 .75-2.13 3.39 3.39 0 1 0 -6 2.17 3.58 3.58 0 0 1 .87 1.79h-9.33v-19a3.07 3.07 0 0 1 3.07-3.11h19.05v9.32a4.45 4.45 0 0 1 -1.88-.91 3.28 3.28 0 0 0 -2.09-.75 3.39 3.39 0 0 0 -3.33 4.02z" fill="#6eaddf"/><path d="m25.66 3.5v2.2h-16.36a3.07 3.07 0 0 0 -3.07 3.08v16.83h-2.69v-19a3.07 3.07 0 0 1 3.07-3.11z" fill="#4d96d2"/><path d="m33.31 44.48a3.37 3.37 0 0 1 -2.1-.73 4.13 4.13 0 0 0 -1.86-.92v8.67h-19a3.09 3.09 0 0 1 -3.08-3.08v-19h22.08v10a3.76 3.76 0 0 0 1.79-.87 3.37 3.37 0 0 1 2.78-.74 3.39 3.39 0 0 1 -.61 6.72z" fill="#ffdb6a"/><path d="m12.81 51.5h-2.5a3.09 3.09 0 0 1 -3.08-3.08v-19h2.5v19a3.09 3.09 0 0 0 3.08 3.08z" fill="#f2cc55"/><path d="m44.16 19a3.41 3.41 0 0 0 2.73 2.71 3.34 3.34 0 0 0 2.78-.75 3.64 3.64 0 0 1 1.79-.85v9.32h-9.33a3.73 3.73 0 0 0 .86 1.8 3.35 3.35 0 0 1 .75 2.77 3.39 3.39 0 0 1 -6.73-.6 3.3 3.3 0 0 1 .75-2.1 4.36 4.36 0 0 0 .91-1.87h-9.32v-22.16h19a3.08 3.08 0 0 1 3.08 3.07v6.25a4.25 4.25 0 0 1 -1.87-.91 3.28 3.28 0 0 0 -2.09-.75 3.4 3.4 0 0 0 -3.31 4.07z" fill="#e95652"/><path d="m51.46 10.34v2.5a3.08 3.08 0 0 0 -3.08-3.07h-19v-2.5h19a3.08 3.08 0 0 1 3.08 3.07z" fill="#cf3b36"/><path d="m51.46 29.38v19a3.09 3.09 0 0 1 -3.08 3.08h-19v-8.63a4.21 4.21 0 0 1 1.86.91 3.32 3.32 0 0 0 2.1.74 3.39 3.39 0 1 0 -2.17-6 3.76 3.76 0 0 1 -1.79.87v-10h9.32a4.36 4.36 0 0 1 -.91 1.87 3.3 3.3 0 0 0 -.75 2.1 3.39 3.39 0 0 0 6.73.6 3.35 3.35 0 0 0 -.77-2.74 3.73 3.73 0 0 1 -.86-1.8z" fill="#9dc271"/><g fill="#556065"><path d="m48.38 52.25h-19a.76.76 0 0 1 -.75-.75v-8.67a.76.76 0 0 1 .27-.58.75.75 0 0 1 .63-.15 4.82 4.82 0 0 1 2.18 1.06 2.69 2.69 0 0 0 3.66-.38 2.6 2.6 0 0 0 .57-2.17 2.64 2.64 0 0 0 -2.12-2.11 2.55 2.55 0 0 0 -2.17.58 4.54 4.54 0 0 1 -2.14 1 .74.74 0 0 1 -.61-.16.78.78 0 0 1 -.27-.58v-10a.76.76 0 0 1 .75-.75h9.32a.76.76 0 0 1 .58.27.8.8 0 0 1 .16.63 5.23 5.23 0 0 1 -1.06 2.19 2.53 2.53 0 0 0 -.59 1.63 2.64 2.64 0 1 0 4.66-1.68 4.47 4.47 0 0 1 -1-2.16.72.72 0 0 1 .17-.61.74.74 0 0 1 .57-.27h9.33a.76.76 0 0 1 .75.75v19a3.84 3.84 0 0 1 -3.89 3.91zm-18.28-1.5h18.28a2.33 2.33 0 0 0 2.33-2.33v-18.29h-7.54a4.12 4.12 0 0 0 .39.57 4.1 4.1 0 0 1 .92 3.38 4.14 4.14 0 0 1 -8.22-.73 4 4 0 0 1 .92-2.57 4.86 4.86 0 0 0 .43-.65h-7.51v8.19a4 4 0 0 0 .55-.39 4.14 4.14 0 0 1 6.74 2.42 4.14 4.14 0 0 1 -4.08 4.88 4 4 0 0 1 -2.57-.91 5.52 5.52 0 0 0 -.64-.43z"/><path d="m25.66 26.36h-9.33a.74.74 0 0 1 -.57-.27.77.77 0 0 1 -.16-.62 4.87 4.87 0 0 1 1.06-2.2 2.51 2.51 0 0 0 .58-1.62 2.64 2.64 0 0 0 -5.24-.48 2.56 2.56 0 0 0 .58 2.16 4.53 4.53 0 0 1 1 2.15.75.75 0 0 1 -.16.61.78.78 0 0 1 -.58.27h-9.3a.76.76 0 0 1 -.75-.75v-19a3.83 3.83 0 0 1 3.82-3.86h19.05a.76.76 0 0 1 .75.75v9.32a.72.72 0 0 1 -.28.58.77.77 0 0 1 -.62.16 5.11 5.11 0 0 1 -2.19-1.06 2.63 2.63 0 1 0 -2.11 4.65 2.59 2.59 0 0 0 2.16-.58 4.46 4.46 0 0 1 2.16-1 .75.75 0 0 1 .88.73v9.33a.76.76 0 0 1 -.75.73zm-8.27-1.5h7.52v-7.53a2.89 2.89 0 0 0 -.57.39 4.11 4.11 0 0 1 -3.39.91 4.15 4.15 0 0 1 -3.33-3.32 4.14 4.14 0 0 1 4.07-4.9 4.06 4.06 0 0 1 2.57.92 4.05 4.05 0 0 0 .65.43v-7.51h-18.3a2.32 2.32 0 0 0 -2.32 2.32v18.29h7.53a2.85 2.85 0 0 0 -.38-.55 4.12 4.12 0 0 1 2.41-6.73 4.09 4.09 0 0 1 3.4.89 4.14 4.14 0 0 1 1.49 3.18 4 4 0 0 1 -.91 2.56 5.33 5.33 0 0 0 -.44.65z"/><path d="m40.42 37.48a4.13 4.13 0 0 1 -4.16-4.13 4 4 0 0 1 .92-2.57 4.86 4.86 0 0 0 .43-.65h-8.26a.76.76 0 0 1 -.75-.75v-22.11a.76.76 0 0 1 .75-.75h19a3.83 3.83 0 0 1 3.83 3.82v6.25a.75.75 0 0 1 -.89.74 5 5 0 0 1 -2.2-1.06 2.63 2.63 0 1 0 -2.09 4.65 2.57 2.57 0 0 0 2.16-.58 4.43 4.43 0 0 1 2.15-1 .75.75 0 0 1 .61.17.74.74 0 0 1 .27.57v9.32a.76.76 0 0 1 -.75.75h-8.27a4.12 4.12 0 0 0 .39.57 4.1 4.1 0 0 1 .92 3.38 4.18 4.18 0 0 1 -3.32 3.34 4.71 4.71 0 0 1 -.74.04zm-10.32-8.85h8.57a.76.76 0 0 1 .58.27.8.8 0 0 1 .16.63 5.23 5.23 0 0 1 -1.06 2.19 2.53 2.53 0 0 0 -.59 1.63 2.64 2.64 0 1 0 4.66-1.68 4.47 4.47 0 0 1 -1-2.16.72.72 0 0 1 .17-.61.74.74 0 0 1 .57-.27h8.58v-7.53a2.85 2.85 0 0 0 -.55.38 4.12 4.12 0 0 1 -3.4.92 4.18 4.18 0 0 1 -3.34-3.32 4.14 4.14 0 0 1 4.08-4.9 4.08 4.08 0 0 1 2.57.92 4.48 4.48 0 0 0 .64.43v-5.19a2.32 2.32 0 0 0 -2.36-2.34h-18.28z"/><path d="m29.35 52.25h-19a3.84 3.84 0 0 1 -3.83-3.83v-19a.76.76 0 0 1 .75-.75h22.08a.76.76 0 0 1 .75.75v8.94a2.78 2.78 0 0 0 .55-.39 4.12 4.12 0 0 1 3.4-.9 4.13 4.13 0 1 1 -3.31 7.3 4.07 4.07 0 0 0 -.64-.44v7.57a.76.76 0 0 1 -.75.75zm-21.35-22.12v18.29a2.34 2.34 0 0 0 2.33 2.33h18.27v-7.92a.76.76 0 0 1 .27-.58.75.75 0 0 1 .63-.15 4.87 4.87 0 0 1 2.18 1.06 2.69 2.69 0 0 0 3.66-.37 2.64 2.64 0 0 0 -1.55-4.29 2.6 2.6 0 0 0 -2.17.58 4.45 4.45 0 0 1 -2.14 1 .74.74 0 0 1 -.61-.16.78.78 0 0 1 -.27-.58v-9.21z"/></g></svg>